<svg width="1200" height="630" viewBox="0 0 1200 630" fill="none" xmlns="http://www.w3.org/2000/svg">
  <defs>
    <linearGradient id="bg" x1="64" y1="40" x2="1136" y2="590" gradientUnits="userSpaceOnUse">
      <stop stop-color="#0EA5E9"/>
      <stop offset="1" stop-color="#0284C7"/>
    </linearGradient>
    <radialGradient id="glow" cx="0" cy="0" r="1" gradientUnits="userSpaceOnUse" gradientTransform="translate(980 140) rotate(130) scale(460 420)">
      <stop stop-color="#BAE6FD" stop-opacity="0.7"/>
      <stop offset="1" stop-color="#BAE6FD" stop-opacity="0"/>
    </radialGradient>
    <filter id="shadow" x="0" y="0" width="1200" height="630" filterUnits="userSpaceOnUse" color-interpolation-filters="sRGB">
      <feDropShadow dx="0" dy="10" stdDeviation="18" flood-color="#082F49" flood-opacity="0.18"/>
    </filter>
  </defs>

  <rect width="1200" height="630" rx="36" fill="url(#bg)"/>
  <rect width="1200" height="630" rx="36" fill="url(#glow)"/>

  <g opacity="0.2">
    <circle cx="170" cy="130" r="62" fill="#E0F2FE"/>
    <circle cx="1080" cy="520" r="96" fill="#E0F2FE"/>
    <circle cx="1040" cy="90" r="30" fill="#E0F2FE"/>
  </g>

  <g filter="url(#shadow)">
    <rect x="76" y="74" width="1048" height="482" rx="28" fill="#FFFFFF" fill-opacity="0.12"/>
    <rect x="76" y="74" width="1048" height="482" rx="28" stroke="#E0F2FE" stroke-opacity="0.55"/>
  </g>

  <text x="126" y="210" fill="#E0F2FE" font-family="Pretendard, Noto Sans KR, Apple SD Gothic Neo, sans-serif" font-size="34" font-weight="600" letter-spacing="1.2">BRIEFING</text>

  <text x="126" y="302" fill="#FFFFFF" font-family="Pretendard, Noto Sans KR, Apple SD Gothic Neo, sans-serif" font-size="72" font-weight="750">오늘의 카카오뱅크</text>
  <text x="126" y="370" fill="#E0F2FE" font-family="Pretendard, Noto Sans KR, Apple SD Gothic Neo, sans-serif" font-size="42" font-weight="560">핵심 기사 요약</text>

  <g transform="translate(934 410)">
    <rect x="0" y="0" width="132" height="132" rx="28" fill="#FFFFFF" fill-opacity="0.2" stroke="#E0F2FE" stroke-opacity="0.75"/>
    <circle cx="66" cy="66" r="38" fill="#E0F2FE" fill-opacity="0.95"/>
    <path d="M66 44V88M46 66H86" stroke="#0284C7" stroke-width="8" stroke-linecap="round"/>
  </g>

  <text x="126" y="494" fill="#E0F2FE" font-family="Pretendard, Noto Sans KR, Apple SD Gothic Neo, sans-serif" font-size="28" font-weight="500">news.kabang.app</text>
</svg>
